<svg width="15" height="16" viewBox="0 0 15 16" fill="none" xmlns="http://www.w3.org/2000/svg">
<path d="M10.8333 7.16667V4.66667H8.33333V3H10.8333V0.5H12.5V3H15V4.66667H12.5V7.16667H10.8333ZM14.125 15.5C12.3333 15.5 10.5869 15.1006 8.88583 14.3017C7.18417 13.5033 5.67722 12.4478 4.365 11.135C3.05222 9.82278 1.99667 8.31583 1.19833 6.61417C0.399445 4.91306 0 3.16667 0 1.375C0 1.125 0.0833333 0.916667 0.25 0.75C0.416667 0.583333 0.625 0.5 0.875 0.5H4.25C4.44444 0.5 4.61806 0.5625 4.77083 0.6875C4.92361 0.8125 5.01389 0.972222 5.04167 1.16667L5.58333 4.08333C5.61111 4.27778 5.60778 4.45472 5.57333 4.61417C5.53833 4.77417 5.45833 4.91667 5.33333 5.04167L3.3125 7.08333C3.89583 8.08333 4.62861 9.02083 5.51083 9.89583C6.3925 10.7708 7.36111 11.5278 8.41667 12.1667L10.375 10.2083C10.5 10.0833 10.6633 9.98944 10.865 9.92667C11.0661 9.86444 11.2639 9.84722 11.4583 9.875L14.3333 10.4583C14.5278 10.5 14.6875 10.5936 14.8125 10.7392C14.9375 10.8853 15 11.0556 15 11.25V14.625C15 14.875 14.9167 15.0833 14.75 15.25C14.5833 15.4167 14.375 15.5 14.125 15.5ZM2.52083 5.5L3.89583 4.125L3.54167 2.16667H1.6875C1.75694 2.73611 1.85417 3.29861 1.97917 3.85417C2.10417 4.40972 2.28472 4.95833 2.52083 5.5ZM9.97917 12.9583C10.5208 13.1944 11.0731 13.3819 11.6358 13.5208C12.1981 13.6597 12.7639 13.75 13.3333 13.7917V11.9583L11.375 11.5625L9.97917 12.9583Z" fill="#E9E9E9"/>
</svg>
