<svg width="15" height="21" viewBox="0 0 15 21" fill="none" xmlns="http://www.w3.org/2000/svg">
<path d="M15 7.16842H12.1875V5.46388C12.1875 2.9785 10.3969 0.759741 7.95937 0.521677C5.16562 0.255046 2.8125 2.48332 2.8125 5.26391V7.16842H0V20.5H15V7.16842ZM7.5 15.7387C6.46875 15.7387 5.625 14.8817 5.625 13.8342C5.625 12.7867 6.46875 11.9297 7.5 11.9297C8.53125 11.9297 9.375 12.7867 9.375 13.8342C9.375 14.8817 8.53125 15.7387 7.5 15.7387ZM4.6875 7.16842V5.26391C4.6875 3.68317 5.94375 2.40714 7.5 2.40714C9.05625 2.40714 10.3125 3.68317 10.3125 5.26391V7.16842H4.6875Z" fill="#F2F2F2"/>
</svg>
