<svg width="26" height="29" viewBox="0 0 26 29" fill="none" xmlns="http://www.w3.org/2000/svg">
<mask id="mask0_482_36" style="mask-type:alpha" maskUnits="userSpaceOnUse" x="0" y="0" width="26" height="29">
<rect y="0.5" width="26" height="28" fill="#D9D9D9"/>
</mask>
<g mask="url(#mask0_482_36)">
<path d="M3.55556 27C2.85278 27 2.25094 26.75 1.75006 26.2499C1.25002 25.7491 1 25.1472 1 24.4444V6.55556C1 5.85278 1.25002 5.25094 1.75006 4.75006C2.25094 4.25002 2.85278 4 3.55556 4H12.5V6.55556H3.55556V24.4444H12.5V27H3.55556ZM17.6111 21.8889L15.8542 20.0361L19.1125 16.7778H8.66667V14.2222H19.1125L15.8542 10.9639L17.6111 9.11111L24 15.5L17.6111 21.8889Z" fill="#B7B7B7"/>
</g>
</svg>
