<svg width="13" height="13" viewBox="0 0 13 13" fill="none" xmlns="http://www.w3.org/2000/svg">
<path d="M6.50065 12.1671C4.91871 12.1671 3.57878 11.6181 2.48086 10.5202C1.38294 9.42228 0.833984 8.08235 0.833984 6.50041C0.833984 4.91846 1.38294 3.57853 2.48086 2.48061C3.57878 1.3827 4.91871 0.83374 6.50065 0.83374C7.31523 0.83374 8.0944 1.00209 8.83815 1.33878C9.5819 1.675 10.2194 2.15596 10.7507 2.78166V0.83374H12.1673V5.79207H7.20898V4.37541H10.184C9.80621 3.7143 9.28983 3.19485 8.63486 2.81707C7.97941 2.4393 7.26801 2.25041 6.50065 2.25041C5.3201 2.25041 4.31662 2.6636 3.49023 3.48999C2.66385 4.31638 2.25065 5.31985 2.25065 6.50041C2.25065 7.68096 2.66385 8.68443 3.49023 9.51082C4.31662 10.3372 5.3201 10.7504 6.50065 10.7504C7.40968 10.7504 8.23016 10.4907 8.96211 9.97124C9.69405 9.45179 10.2076 8.76707 10.5027 7.91707H11.9902C11.6597 9.16846 10.9868 10.1896 9.97148 10.9806C8.95621 11.7716 7.79926 12.1671 6.50065 12.1671Z" fill="white"/>
</svg>
