<svg width="11" height="10" viewBox="0 0 11 10" fill="none" xmlns="http://www.w3.org/2000/svg">
<path d="M5.50013 6.13733L6.23186 4.50864L7.86055 3.77691L6.23186 3.04518L5.50013 1.41649L4.7684 3.04518L3.13971 3.77691L4.7684 4.50864L5.50013 6.13733ZM0.779297 9.44191V0.944411C0.779297 0.684765 0.871825 0.462414 1.05688 0.277357C1.24162 0.0926151 1.46382 0.000244141 1.72346 0.000244141H9.2768C9.53644 0.000244141 9.75879 0.0926151 9.94385 0.277357C10.1286 0.462414 10.221 0.684765 10.221 0.944411V6.60941C10.221 6.86906 10.1286 7.09141 9.94385 7.27646C9.75879 7.46121 9.53644 7.55358 9.2768 7.55358H2.66763L0.779297 9.44191ZM1.72346 7.16411L2.27816 6.60941H9.2768V0.944411H1.72346V7.16411Z" fill="#747474"/>
</svg>
